<svg width="26" height="26" viewBox="0 0 26 26" fill="none" xmlns="http://www.w3.org/2000/svg">
<path d="M24.0775 12.0769H13.9237V1.92308C13.9237 1.67826 13.8264 1.44347 13.6533 1.27036C13.4802 1.09725 13.2454 1 13.0006 1C12.7558 1 12.521 1.09725 12.3479 1.27036C12.1748 1.44347 12.0775 1.67826 12.0775 1.92308V12.0769H1.92368C1.67887 12.0769 1.44408 12.1742 1.27097 12.3473C1.09786 12.5204 1.0006 12.7552 1.0006 13C0.99605 13.12 1.01726 13.2395 1.06282 13.3506C1.10837 13.4617 1.1772 13.5617 1.26468 13.6439C1.35215 13.7261 1.45623 13.7887 1.56991 13.8273C1.68359 13.8659 1.80423 13.8797 1.92368 13.8677H12.0775V24.0769C12.0775 24.3217 12.1748 24.5565 12.3479 24.7296C12.521 24.9027 12.7558 25 13.0006 25C13.2454 25 13.4802 24.9027 13.6533 24.7296C13.8264 24.5565 13.9237 24.3217 13.9237 24.0769V13.9231H24.0775C24.3223 13.9231 24.5571 13.8258 24.7302 13.6527C24.9034 13.4796 25.0006 13.2448 25.0006 13C25.0006 12.7552 24.9034 12.5204 24.7302 12.3473C24.5571 12.1742 24.3223 12.0769 24.0775 12.0769Z" fill="url(#paint0_linear_294_14)" stroke="url(#paint1_linear_294_14)"/>
<defs>
<linearGradient id="paint0_linear_294_14" x1="1" y1="13.0486" x2="25.0006" y2="13.0486" gradientUnits="userSpaceOnUse">
<stop stop-color="#692095"/>
<stop offset="1" stop-color="#9532D1"/>
<stop offset="1" stop-color="#9C2BE1"/>
</linearGradient>
<linearGradient id="paint1_linear_294_14" x1="1" y1="13.0486" x2="25.0006" y2="13.0486" gradientUnits="userSpaceOnUse">
<stop stop-color="#692095"/>
<stop offset="1" stop-color="#9532D1"/>
<stop offset="1" stop-color="#9C2BE1"/>
</linearGradient>
</defs>
</svg>
