<svg width="26" height="26" viewBox="0 0 26 26" fill="none" xmlns="http://www.w3.org/2000/svg">
<path d="M24.0772 12.0769H13.9234V1.92308C13.9234 1.67826 13.8261 1.44347 13.653 1.27036C13.4799 1.09725 13.2451 1 13.0003 1C12.7555 1 12.5207 1.09725 12.3476 1.27036C12.1745 1.44347 12.0772 1.67826 12.0772 1.92308V12.0769H1.92338C1.67856 12.0769 1.44377 12.1742 1.27066 12.3473C1.09755 12.5204 1.0003 12.7552 1.0003 13C0.995745 13.12 1.01696 13.2395 1.06251 13.3506C1.10806 13.4617 1.1769 13.5617 1.26437 13.6439C1.35185 13.7261 1.45593 13.7887 1.56961 13.8273C1.68329 13.8659 1.80392 13.8797 1.92338 13.8677H12.0772V24.0769C12.0772 24.3217 12.1745 24.5565 12.3476 24.7296C12.5207 24.9027 12.7555 25 13.0003 25C13.2451 25 13.4799 24.9027 13.653 24.7296C13.8261 24.5565 13.9234 24.3217 13.9234 24.0769V13.9231H24.0772C24.322 13.9231 24.5568 13.8258 24.7299 13.6527C24.903 13.4796 25.0003 13.2448 25.0003 13C25.0003 12.7552 24.903 12.5204 24.7299 12.3473C24.5568 12.1742 24.322 12.0769 24.0772 12.0769Z" fill="#2AE2BD" stroke="#2AE2BD"/>
</svg>
