<svg width="17" height="16" viewBox="0 0 17 16" fill="none" xmlns="http://www.w3.org/2000/svg">
<path d="M1.26419 13.4734H8.84393C9.16401 13.4735 9.47211 13.5951 9.70599 13.8136C9.93987 14.0321 10.0821 14.3313 10.1039 14.6506C10.1257 14.9699 10.0255 15.2856 9.82352 15.5339C9.62153 15.7822 9.33283 15.9446 9.01574 15.9882L8.84393 16H1.26419C0.944114 15.9999 0.63601 15.8783 0.402132 15.6598C0.168253 15.4413 0.0260378 15.1421 0.00422164 14.8228C-0.0175945 14.5035 0.082615 14.1878 0.284602 13.9395C0.486589 13.6912 0.775294 13.5288 1.09238 13.4852L1.26419 13.4734H8.84393H1.26419ZM3.74024 3.73766C3.95435 3.52396 4.23803 3.39419 4.53971 3.37194C4.8414 3.34968 5.14105 3.43642 5.3842 3.61638L5.52569 3.73934L11.421 9.6347C11.645 9.86041 11.7756 10.1623 11.7868 10.48C11.798 10.7978 11.6889 11.1081 11.4814 11.349C11.2739 11.5899 10.9832 11.7437 10.6672 11.7797C10.3513 11.8156 10.0335 11.7312 9.77708 11.5431L9.6356 11.4201L3.74024 5.52479C3.50366 5.28793 3.37078 4.96684 3.37078 4.63207C3.37078 4.29729 3.50366 3.97621 3.74024 3.73934V3.73766ZM14.7393 0C15.0446 1.28736e-05 15.3395 0.110568 15.5696 0.311219C15.7996 0.511871 15.9493 0.789045 15.9908 1.09148L16.0026 1.26329V8.84304C16.0025 9.16311 15.8809 9.47121 15.6624 9.70509C15.4439 9.93897 15.1447 10.0812 14.8254 10.103C14.5061 10.1248 14.1904 10.0246 13.9421 9.82262C13.6938 9.62064 13.5314 9.33193 13.4878 9.01484L13.476 8.84304V1.26329C13.476 0.928245 13.6091 0.606922 13.846 0.370009C14.0829 0.133096 14.4042 0 14.7393 0Z" fill="#14213D"/>
</svg>
