<svg width="427" height="516" viewBox="0 0 427 516" fill="none" xmlns="http://www.w3.org/2000/svg">
<path d="M232.347 141.012C233.13 140.858 233.913 140.549 234.696 140.394C248.007 136.531 261.161 130.04 270.243 119.531C279.169 109.332 285.12 96.6595 295.142 87.3872C307.2 76.4149 323.643 72.0879 339.616 75.4878C348.229 77.3422 356.215 79.9694 363.418 83.2147C369.839 86.1509 375.79 89.7052 381.114 93.5687C386.282 97.4322 391.136 101.759 395.364 106.395C410.084 122.622 419.167 143.176 422.925 165.275C423.708 170.065 424.335 175.011 424.648 179.956C425.117 187.528 425.117 195.101 424.648 202.673C423.395 218.436 419.95 234.044 414.312 248.726C410.397 258.771 405.856 268.507 400.688 278.088C398.026 282.724 395.364 287.515 392.545 291.996" stroke="#9D9D9D" stroke-width="1.9523" stroke-miterlimit="10"/>
<path d="M424.961 180.11C397.4 171.611 377.355 146.112 377.355 116.131C377.355 108.25 378.765 100.677 381.27 93.5687C386.438 97.4322 391.293 101.759 395.521 106.396C410.241 122.622 419.323 143.176 423.082 165.275C424.021 170.22 424.648 175.165 424.961 180.11Z" stroke="#9D9D9D" stroke-width="1.9523" stroke-miterlimit="10"/>
<path d="M51.7911 219.826C51.7911 219.826 -35.12 294.159 18.4361 380.701C28.7715 397.391 36.7579 411.145 42.8652 422.426C43.1783 423.199 43.6481 423.817 43.9613 424.435C68.547 470.488 62.5963 476.36 62.5963 476.36" stroke="#9D9D9D" stroke-width="1.9523" stroke-miterlimit="10"/>
<path d="M185.838 145.493C174.876 145.029 164.071 143.793 153.422 142.094" stroke="#9D9D9D" stroke-width="1.9523" stroke-miterlimit="10"/>
<path d="M153.266 461.061V465.543V473.579C153.266 474.97 152.326 476.052 150.917 476.361C150.76 476.361 150.604 476.361 150.29 476.361H142.147H88.9045H62.5963" stroke="#9D9D9D" stroke-width="1.9523" stroke-miterlimit="10"/>
<path d="M153.266 402.491V326.458C153.266 322.749 150.134 319.658 146.376 319.658H45.6839C44.1179 319.658 42.7086 320.895 42.7086 322.595V371.738V422.581" stroke="#9D9D9D" stroke-width="1.9523" stroke-miterlimit="10"/>
<path d="M153.266 402.491V371.738H42.8651V422.427" stroke="#9D9D9D" stroke-width="1.9523" stroke-miterlimit="10"/>
<path d="M139.798 424.59H43.9613" stroke="#9D9D9D" stroke-width="1.9523" stroke-miterlimit="10"/>
<path d="M98.1437 406.046C102.554 406.046 106.13 402.517 106.13 398.164C106.13 393.811 102.554 390.282 98.1437 390.282C93.733 390.282 90.1573 393.811 90.1573 398.164C90.1573 402.517 93.733 406.046 98.1437 406.046Z" stroke="#9D9D9D" stroke-width="1.9523" stroke-miterlimit="10"/>
<path d="M98.1437 355.202C102.554 355.202 106.13 351.674 106.13 347.321C106.13 342.968 102.554 339.439 98.1437 339.439C93.733 339.439 90.1573 342.968 90.1573 347.321C90.1573 351.674 93.733 355.202 98.1437 355.202Z" stroke="#9D9D9D" stroke-width="1.9523" stroke-miterlimit="10"/>
<path d="M98.1437 459.516C102.554 459.516 106.13 455.987 106.13 451.635C106.13 447.282 102.554 443.753 98.1437 443.753C93.733 443.753 90.1573 447.282 90.1573 451.635C90.1573 455.987 93.733 459.516 98.1437 459.516Z" stroke="#9D9D9D" stroke-width="1.9523" stroke-miterlimit="10"/>
<path d="M204.786 319.658H146.532H45.8405H33.4693V308.686H210.11" stroke="#9D9D9D" stroke-width="1.9523" stroke-miterlimit="10"/>
<path d="M130.089 276.387L124.922 305.131C124.609 306.831 123.199 308.067 121.477 308.067H94.2288C92.5062 308.067 91.0969 306.831 90.7837 305.131L85.9292 276.387H130.089Z" stroke="#9D9D9D" stroke-width="1.9523" stroke-miterlimit="10"/>
<path d="M134.944 273.142C134.787 274.996 133.221 276.387 131.499 276.387H84.5198C82.6407 276.387 81.2313 274.996 81.0747 273.296C80.9181 271.288 82.4841 269.433 84.5198 269.433H131.499C133.535 269.279 135.257 271.133 134.944 273.142Z" stroke="#9D9D9D" stroke-width="1.9523" stroke-miterlimit="10"/>
<path d="M109.575 269.277C109.575 267.887 113.334 249.496 110.202 233.27C108.479 224.307 104.721 216.116 97.0476 211.48" stroke="#9D9D9D" stroke-width="1.9523" stroke-miterlimit="10"/>
<path d="M110.202 233.271C110.202 233.271 111.141 220.908 121.946 220.135" stroke="#9D9D9D" stroke-width="1.9523" stroke-miterlimit="10"/>
<path d="M111.298 252.124C111.298 252.124 115.369 248.88 121.79 249.189" stroke="#9D9D9D" stroke-width="1.9523" stroke-miterlimit="10"/>
<path d="M111.298 243.316C111.298 243.316 103.468 234.199 90.9402 241.462" stroke="#9D9D9D" stroke-width="1.9523" stroke-miterlimit="10"/>
<path d="M105.817 239.607C105.817 239.607 88.1215 223.69 84.6764 245.171C84.6764 245.171 89.6875 248.416 97.0476 245.171C104.408 241.925 105.817 239.607 105.817 239.607Z" stroke="#9D9D9D" stroke-width="1.9523" stroke-miterlimit="10"/>
<path d="M114.117 223.844C114.117 223.844 113.49 216.736 121.946 214.263C130.403 211.945 135.101 221.681 135.101 221.681C135.101 221.681 128.523 228.944 114.117 223.844Z" stroke="#9D9D9D" stroke-width="1.9523" stroke-miterlimit="10"/>
<path d="M115.996 249.189C115.996 249.189 115.683 241.925 125.548 243.471C135.414 245.016 136.98 253.207 136.98 253.207C136.98 253.207 120.85 259.079 115.996 249.962" stroke="#9D9D9D" stroke-width="1.9523" stroke-miterlimit="10"/>
<path d="M104.251 218.281C104.251 218.745 96.8913 217.663 96.4215 217.509C92.8198 216.427 90.3142 213.954 88.5916 210.863C88.1219 209.936 85.1465 204.218 85.9295 203.291C85.9295 203.136 103.468 197.573 104.251 218.281Z" stroke="#9D9D9D" stroke-width="1.9523" stroke-miterlimit="10"/>
<path d="M257.246 226.472C257.246 226.472 268.521 266.034 247.537 280.87C247.85 282.106 267.425 279.633 267.425 279.633L266.329 300.96C266.329 300.96 289.035 309.614 299.527 309.768C310.019 309.923 320.511 299.878 323.173 294.778C325.835 289.678 371.248 297.714 367.333 331.095C367.333 331.095 338.363 361.075 306.261 351.648C306.261 351.648 284.337 343.149 293.107 353.194C301.876 363.239 351.517 397.855 357.155 466.934C357.155 466.934 398.653 442.208 400.845 366.02C403.037 289.833 380.801 258.462 357.938 234.663C357.938 234.663 340.712 222.763 338.05 226.317C335.388 229.872 317.849 243.935 312.055 243.008C306.261 242.08 297.648 242.389 300.31 235.744C302.972 229.099 305.164 232.035 304.225 227.09C303.285 221.99 302.972 221.527 297.021 221.99C290.914 222.763 257.246 226.472 257.246 226.472Z" fill="#FE7624"/>
<path d="M157.964 461.062C152.796 466.007 147.472 471.261 142.147 476.516H88.9045C84.5198 476.516 81.0747 473.116 81.0747 468.789C81.0747 466.625 82.0143 464.771 83.4236 463.38C84.833 461.989 86.7122 461.062 88.9045 461.062H157.964Z" fill="black"/>
<path d="M363.732 180.42C363.732 181.81 363.575 183.047 363.418 184.437L360.913 193.092C355.275 204.991 342.591 210.554 335.857 212.563C333.508 213.336 331.942 213.645 331.629 213.645C329.907 208.082 330.533 202.519 333.978 197.573C335.544 195.41 337.737 193.864 338.989 191.546C340.242 189.383 340.399 186.756 338.52 185.056C337.893 184.438 337.267 183.974 336.484 183.51C335.074 182.892 333.508 182.737 332.099 183.356C331.786 183.51 331.629 183.665 331.316 183.665C328.497 181.656 330.376 178.719 331.316 176.247C331.473 175.938 331.473 175.629 331.629 175.32C331.629 175.32 331.629 175.32 331.629 175.165C331.942 174.392 333.822 167.284 328.811 161.102C328.341 160.484 328.028 160.02 327.714 159.557C326.462 157.239 326.618 155.075 327.401 153.375C328.497 150.748 330.533 149.048 330.846 148.739C332.412 147.348 334.291 146.575 336.327 146.266C345.253 147.503 354.649 154.766 355.275 155.23C360.286 161.566 363.732 169.602 363.732 180.42Z" fill="black"/>
<path d="M355.119 155.693C354.179 154.921 336.014 140.703 326.305 149.203C323.799 149.666 319.101 150.748 314.09 153.375H313.777C313.777 153.375 316.753 143.176 329.124 143.33C336.484 143.33 347.602 146.885 355.119 155.693Z" fill="black"/>
<path d="M383.933 201.591C382.367 209.782 375.476 217.045 375.79 225.39C376.103 233.426 379.704 241.153 380.487 249.189C380.801 251.971 380.644 256.607 380.174 261.552C380.174 261.707 380.174 261.707 380.174 261.707C375.163 252.435 362.322 239.608 356.685 234.199C357.624 232.344 358.564 230.49 359.817 228.79C363.418 223.69 366.863 218.436 369.056 212.563C370.622 208.855 372.658 203.446 370.778 199.428C370.465 198.655 369.995 198.037 369.369 197.728C369.212 196.955 369.056 196.182 368.743 195.41C367.803 193.555 366.394 192.783 364.828 192.783C363.575 192.628 362.166 192.937 361.069 193.246V193.092C362.322 190.464 363.262 187.683 363.575 184.437C366.394 181.965 371.248 179.183 378.138 182.583C381.114 183.974 382.68 186.601 383.463 189.383C384.872 193.401 384.559 198.037 383.933 201.591Z" fill="black"/>
<path d="M336.014 402.337C320.667 379.929 302.972 360.766 285.903 345.003C281.675 341.14 277.603 337.431 273.532 334.031C265.232 326.922 257.402 320.74 250.199 315.486C237.358 305.905 219.976 306.832 208.388 316.259C205.412 318.577 202.907 321.513 200.714 324.913L117.249 461.062H95.9514H88.9045C86.7122 461.062 84.833 461.989 83.4236 463.38C82.0143 464.771 81.0747 466.78 81.0747 468.789C81.0747 472.961 84.5198 476.516 88.9045 476.516H142.147C147.472 471.261 152.639 466.162 157.964 461.062C189.283 431.081 218.566 406.046 229.841 396.619" stroke="black" stroke-width="1.9523" stroke-miterlimit="10"/>
<path d="M266.329 301.114C265.232 282.724 269.147 264.952 278.073 248.725" stroke="black" stroke-width="1.9523" stroke-miterlimit="10"/>
<path d="M329.437 279.324C318.632 323.986 282.928 306.832 282.928 306.832L269.147 302.041L237.828 291.224C232.817 289.06 226.866 289.215 222.168 292.151C218.097 294.778 208.858 305.596 208.544 316.259" stroke="black" stroke-width="1.9523" stroke-miterlimit="10"/>
<path d="M224.361 382.247C226.083 387.347 227.962 392.137 229.841 396.774C272.279 499.387 345.88 473.734 345.88 473.734C410.867 442.517 413.06 324.913 379.548 261.861C379.391 261.552 379.235 261.089 378.921 260.78C372.658 249.344 364.358 238.68 353.396 231.881C350.264 230.026 346.976 228.326 343.374 227.09C341.338 226.317 339.303 225.699 337.11 225.236" stroke="black" stroke-width="1.9523" stroke-miterlimit="10"/>
<path d="M232.504 231.416C247.38 227.553 262.57 225.544 277.917 223.845C285.59 223.072 294.359 222.299 303.285 222.145" stroke="black" stroke-width="1.9523" stroke-miterlimit="10"/>
<path d="M212.772 156.62C212.772 156.62 210.11 141.012 216.687 135.139C219.663 132.512 220.132 129.267 220.915 125.558C221.855 120.613 227.179 118.604 230.311 122.931C233.287 126.949 232.19 134.058 232.19 138.539" stroke="black" stroke-width="1.9523" stroke-miterlimit="10"/>
<path d="M214.182 138.539C214.182 138.539 206.509 138.848 207.761 122.622C207.918 119.995 209.954 115.977 212.459 115.513L214.495 115.204C217.627 114.586 219.819 111.959 219.819 108.868V90.7869C219.819 87.8507 221.855 85.0688 224.83 84.4507C228.902 83.678 232.347 86.7688 232.347 90.4777L232.504 238.526" stroke="black" stroke-width="1.9523" stroke-miterlimit="10"/>
<path d="M212.146 147.039C198.835 148.584 197.739 132.203 197.896 124.94C197.896 124.94 197.896 124.94 197.896 124.786" stroke="black" stroke-width="1.9523" stroke-miterlimit="10"/>
<path d="M189.753 132.203C189.753 132.203 188.187 153.221 201.497 142.403" stroke="black" stroke-width="1.9523" stroke-miterlimit="10"/>
<path d="M336.171 512.523C334.605 514.377 332.099 515.459 329.594 514.841C328.341 514.532 327.245 514.068 326.305 513.141C325.679 512.523 324.582 511.75 323.016 510.823C329.75 490.115 308.296 475.897 307.67 475.434C310.645 476.515 313.464 477.443 315.97 478.37C317.849 479.143 319.728 479.761 321.451 480.379C327.714 482.697 332.725 487.488 335.544 493.36C337.893 498.46 340.086 508.041 336.171 512.523Z" fill="black"/>
<path d="M379.235 260.78C394.738 282.57 383.15 313.014 367.49 331.404C346.193 356.439 315.187 359.066 286.06 345.003" stroke="black" stroke-width="1.9523" stroke-miterlimit="10"/>
<path d="M338.989 226.472C336.014 222.145 332.725 217.354 331.629 213.954C329.907 208.391 330.533 202.827 333.978 197.882C335.544 195.719 337.737 194.173 338.989 191.855C340.242 189.692 340.399 187.065 338.52 185.365C336.954 183.819 334.291 182.738 332.099 183.819C330.22 184.747 329.124 185.828 326.931 184.283C323.643 181.965 326.618 178.565 327.088 175.938C327.245 175.474 327.245 175.011 327.401 174.547" stroke="black" stroke-width="1.9523" stroke-miterlimit="10"/>
<path d="M299.684 203.909L305.164 232.19L306.417 238.062" stroke="black" stroke-width="1.9523" stroke-miterlimit="10"/>
<path d="M304.851 230.026C300.31 234.508 296.082 240.689 306.261 242.698C319.884 245.48 334.605 231.263 339.146 226.317" stroke="black" stroke-width="1.9523" stroke-miterlimit="10"/>
<path d="M313.777 153.221C313.777 153.221 316.753 143.176 329.124 143.176C341.495 143.176 364.045 153.066 363.732 180.42C363.418 207.773 331.629 213.8 331.629 213.8" stroke="black" stroke-width="1.9523" stroke-miterlimit="10"/>
<path d="M268.051 42.5701C268.051 65.5963 249.259 84.141 225.927 84.141C216.374 84.141 207.448 81.0503 200.401 75.6414C193.668 68.2235 189.753 58.6421 189.753 47.9789C189.753 24.9527 208.544 6.40796 231.877 6.40796C241.43 6.40796 250.356 9.65327 257.403 14.9076C264.136 22.3255 268.051 31.9069 268.051 42.5701Z" fill="#3278FF"/>
<path d="M355.119 155.693C355.119 155.693 336.171 140.548 326.305 149.203C326.305 149.203 318.945 155.075 324.269 161.72C329.593 168.365 327.088 175.938 327.088 175.938" stroke="black" stroke-width="1.9523" stroke-miterlimit="10"/>
<path d="M360.756 193.401C363.262 192.628 366.863 192.165 368.429 195.564C370.309 199.582 368.273 204.991 366.707 208.7C364.358 214.573 361.069 219.827 357.468 224.927C355.902 227.09 354.649 229.408 353.553 231.881" stroke="black" stroke-width="1.9523" stroke-miterlimit="10"/>
<path d="M379.704 261.861C379.704 261.707 379.704 261.707 379.704 261.707C380.331 256.762 380.331 252.125 380.018 249.344C379.078 241.308 375.633 233.581 375.32 225.545C375.007 217.045 381.897 209.936 383.463 201.746C384.559 195.41 384.716 185.983 377.825 182.583C370.935 179.183 365.924 181.965 363.262 184.437" stroke="black" stroke-width="1.9523" stroke-miterlimit="10"/>
<path d="M310.645 204.373C306.73 204.837 302.816 204.991 299.684 203.909C293.42 201.746 290.131 194.946 295.142 177.174C301.563 154.92 320.041 150.13 326.148 149.203C325.209 149.203 324.739 149.512 324.739 149.512" stroke="black" stroke-width="1.9523" stroke-miterlimit="10"/>
<path d="M312.895 168.907C316.753 164.756 318.744 160.362 317.341 159.092C315.939 157.823 311.675 160.16 307.817 164.311C303.959 168.463 301.968 172.857 303.37 174.127C304.772 175.396 309.037 173.059 312.895 168.907Z" stroke="black" stroke-width="1.9523" stroke-miterlimit="10"/>
<path d="M326.775 176.709C320.198 172.692 314.09 167.284 314.09 167.284" stroke="black" stroke-width="1.9523" stroke-miterlimit="10"/>
<path d="M158.903 459.671C157.65 468.016 162.505 483.779 215.748 486.87C279.326 490.578 312.368 504.487 322.86 510.823C324.426 511.75 325.522 512.523 326.148 513.141C327.245 514.068 328.341 514.686 329.437 514.841C331.942 515.305 334.448 514.377 336.014 512.523C339.929 508.041 337.737 498.46 335.388 493.515C332.569 487.488 327.558 482.697 321.294 480.533C319.571 479.915 317.692 479.143 315.813 478.524C313.151 477.597 310.489 476.516 307.513 475.588C299.684 472.807 290.914 469.87 281.832 467.089C273.689 464.616 265.076 462.143 256.776 459.98C255.993 459.825 255.21 459.516 254.427 459.362C243.935 456.735 233.6 454.725 224.517 453.644" stroke="black" stroke-width="1.9523" stroke-miterlimit="10"/>
<path d="M256.933 459.824C261.944 458.279 267.425 457.507 271.026 457.043" stroke="black" stroke-width="1.9523" stroke-miterlimit="10"/>
<path d="M198.052 128.494C197.896 127.258 197.739 125.713 196.956 124.631C195.86 123.24 194.294 124.785 193.668 125.713C189.596 130.658 188.03 137.148 186.464 143.021C185.055 148.584 183.959 154.148 183.176 159.866C181.766 170.683 181.766 181.656 181.766 192.628C181.61 206.227 182.08 215.809 183.489 229.254C185.681 249.962 193.198 270.515 215.278 277.006C231.251 281.642 250.042 281.488 267.738 279.633" stroke="black" stroke-width="1.9523" stroke-miterlimit="10"/>
<path d="M197.896 126.175C197.739 123.394 199.462 120.767 202.124 119.686C204.473 118.759 207.761 119.377 207.761 122.467C207.761 122.467 207.761 122.467 207.761 122.621" stroke="black" stroke-width="1.9523" stroke-miterlimit="10"/>
<path d="M225.927 84.142C249.191 84.142 268.051 65.53 268.051 42.571C268.051 19.6121 249.191 1.00012 225.927 1.00012C202.662 1.00012 183.802 19.6121 183.802 42.571C183.802 65.53 202.662 84.142 225.927 84.142Z" stroke="black" stroke-width="1.9523" stroke-miterlimit="10"/>
<path d="M48.3461 476.516C50.5384 476.516 168.925 476.516 168.925 476.516" stroke="black" stroke-width="1.9523" stroke-miterlimit="10"/>
<path d="M315.97 478.525C318.162 478.525 395.521 478.525 395.521 478.525" stroke="black" stroke-width="1.9523" stroke-miterlimit="10"/>
<path d="M275.724 39.6345C278.23 41.6435 279.639 43.8072 279.639 46.1253C279.639 48.907 277.603 51.3796 274.158 53.6977" stroke="black" stroke-width="1.9523" stroke-miterlimit="10"/>
<path d="M247.067 61.8882C244.875 62.1968 242.526 62.5054 240.02 62.6597" stroke="black" stroke-width="1.9523" stroke-miterlimit="10"/>
<path d="M215.748 62.8154C219.193 62.9699 222.795 63.1246 226.396 63.1246C229.059 63.1246 231.877 63.1246 234.383 62.9701" stroke="black" stroke-width="1.9523" stroke-miterlimit="10"/>
<path d="M175.659 40.7166C174.093 42.4165 173.154 44.1164 173.154 45.9709C173.154 49.3707 176.129 52.4613 181.453 55.0884C187.56 58.1792 196.956 60.6518 207.918 62.0426" stroke="black" stroke-width="1.9523" stroke-miterlimit="10"/>
<path d="M162.505 260.934H51.7911V172.074C51.7911 141.939 76.5334 117.367 107.226 117.367C137.763 117.367 162.662 141.784 162.662 172.074V260.934H162.505Z" stroke="#9D9D9D" stroke-width="1.9523" stroke-miterlimit="10"/>
</svg>
