<svg width="17" height="18" viewBox="0 0 17 18" fill="none" xmlns="http://www.w3.org/2000/svg">
<path d="M9.25085 0.378144C8.994 0.135306 8.65393 0 8.30045 0C7.94697 0 7.60691 0.135306 7.35005 0.378144L0.64882 6.71139C0.443634 6.90555 0.280254 7.13957 0.168688 7.3991C0.0571224 7.65862 -0.000278856 7.9382 1.01854e-06 8.22069V15.9263C0.000367762 16.4764 0.219157 17.0038 0.608276 17.3927C0.997396 17.7816 1.525 18 2.07511 18H4.15023C4.70058 18 5.22839 17.7814 5.61755 17.3922C6.00671 17.0031 6.22534 16.4752 6.22534 15.9249V12.4664C6.22534 12.2829 6.29821 12.107 6.42793 11.9773C6.55765 11.8475 6.73359 11.7747 6.91704 11.7747H9.68386C9.86731 11.7747 10.0432 11.8475 10.173 11.9773C10.3027 12.107 10.3756 12.2829 10.3756 12.4664V15.9249C10.3756 16.4752 10.5942 17.0031 10.9833 17.3922C11.3725 17.7814 11.9003 18 12.4507 18H14.5258C15.0761 18 15.604 17.7814 15.9931 17.3922C16.3823 17.0031 16.6009 16.4752 16.6009 15.9249V8.2193C16.6008 7.93694 16.5431 7.65757 16.4313 7.39829C16.3195 7.13901 16.156 6.90527 15.9507 6.71139L9.25085 0.375378V0.378144Z" fill="#333333"/>
</svg>
