<svg width="17" height="18" viewBox="0 0 17 18" fill="none" xmlns="http://www.w3.org/2000/svg">
<path d="M9.24397 1C9.24397 0.734783 9.13861 0.48043 8.95107 0.292893C8.76354 0.105357 8.50918 0 8.24397 0C7.97875 0 7.7244 0.105357 7.53686 0.292893C7.34932 0.48043 7.24397 0.734783 7.24397 1L7.24097 9.003C7.24097 9.26822 7.34632 9.52257 7.53386 9.71011C7.7214 9.89764 7.97575 10.003 8.24097 10.003C8.50618 10.003 8.76054 9.89764 8.94807 9.71011C9.13561 9.52257 9.24097 9.26822 9.24097 9.003L9.24397 1.001V1Z" fill="#333333"/>
<path d="M0.244019 9.98305C0.244019 7.77305 1.13902 5.77305 2.58702 4.32605L4.00102 5.74005C3.16186 6.57915 2.59038 7.64825 2.35884 8.81214C2.12729 9.97604 2.24609 11.1825 2.7002 12.2788C3.15432 13.3752 3.92335 14.3123 4.91006 14.9716C5.89676 15.6309 7.05681 15.9828 8.24352 15.9828C9.43022 15.9828 10.5903 15.6309 11.577 14.9716C12.5637 14.3123 13.3327 13.3752 13.7868 12.2788C14.2409 11.1825 14.3597 9.97604 14.1282 8.81214C13.8967 7.64825 13.3252 6.57915 12.486 5.74005L13.901 4.32605C14.8313 5.25633 15.5177 6.40167 15.8996 7.66062C16.2815 8.91956 16.347 10.2533 16.0903 11.5436C15.8336 12.8339 15.2627 14.041 14.4281 15.0579C13.5935 16.0749 12.521 16.8703 11.3055 17.3738C10.0901 17.8772 8.76924 18.0732 7.45999 17.9442C6.15073 17.8153 4.89348 17.3655 3.7996 16.6346C2.70571 15.9037 1.80895 14.9144 1.18876 13.7541C0.56856 12.5939 0.244066 11.2986 0.244019 9.98305V9.98305Z" fill="#333333"/>
</svg>
