<svg width="16" height="18" viewBox="0 0 16 18" fill="none" xmlns="http://www.w3.org/2000/svg">
<path d="M15.4547 4.21891C15.4547 3.56699 15.0668 2.97284 14.4727 2.70877L8.69619 0.14235C8.26708 -0.0474499 7.7802 -0.0474499 7.35934 0.14235L1.58284 2.70877C0.988681 2.97284 0.60083 3.56699 0.60083 4.21891V8.09742C0.60083 12.6774 3.76966 16.9602 8.02776 18C9.92576 17.5379 11.6009 16.4321 12.88 14.9385L10.3054 12.3638C9.51207 12.8881 8.56186 13.122 7.61584 13.0257C6.66981 12.9294 5.78619 12.509 5.11476 11.8356C4.34184 11.0616 3.90772 10.0124 3.90772 8.91851C3.90772 7.82462 4.34184 6.77545 5.11476 6.00138C5.88883 5.22846 6.938 4.79434 8.03189 4.79434C9.12578 4.79434 10.175 5.22846 10.949 6.00138C11.6207 6.67377 12.04 7.55722 12.1362 8.50275C12.2324 9.44828 11.9997 10.3981 11.4772 11.192L13.8703 13.5851C14.8688 11.9677 15.4547 10.0614 15.4547 8.09742V4.21891Z" fill="#333333"/>
<path d="M8.02765 11.3983C9.39491 11.3983 10.5033 10.2899 10.5033 8.92267C10.5033 7.55541 9.39491 6.44702 8.02765 6.44702C6.66039 6.44702 5.552 7.55541 5.552 8.92267C5.552 10.2899 6.66039 11.3983 8.02765 11.3983Z" fill="#333333"/>
</svg>
