<svg width="18" height="18" viewBox="0 0 18 18" fill="none" xmlns="http://www.w3.org/2000/svg">
<path d="M16.5769 14.6894C16.1503 13.679 15.5313 12.7612 14.7543 11.9872C13.9796 11.2109 13.062 10.592 12.052 10.1646C12.043 10.1601 12.0339 10.1578 12.0249 10.1533C13.4337 9.13568 14.3495 7.47814 14.3495 5.60804C14.3495 2.51005 11.8395 0 8.74146 0C5.64347 0 3.13342 2.51005 3.13342 5.60804C3.13342 7.47814 4.04925 9.13568 5.45804 10.1555C5.449 10.16 5.43995 10.1623 5.43091 10.1668C4.41784 10.5942 3.5088 11.207 2.72865 11.9894C1.95236 12.7641 1.33343 13.6817 0.906034 14.6917C0.486159 15.6805 0.259711 16.7406 0.238948 17.8146C0.238345 17.8387 0.242578 17.8627 0.251399 17.8852C0.260219 17.9077 0.273449 17.9281 0.290308 17.9454C0.307167 17.9627 0.327314 17.9764 0.349563 17.9858C0.371811 17.9952 0.395711 18 0.419853 18H1.77664C1.87613 18 1.95528 17.9209 1.95754 17.8236C2.00277 16.0779 2.70377 14.443 3.94297 13.2038C5.22513 11.9216 6.92789 11.2161 8.74146 11.2161C10.555 11.2161 12.2578 11.9216 13.54 13.2038C14.7791 14.443 15.4802 16.0779 15.5254 17.8236C15.5276 17.9231 15.6068 18 15.7063 18H17.0631C17.0872 18 17.1111 17.9952 17.1334 17.9858C17.1556 17.9764 17.1758 17.9627 17.1926 17.9454C17.2095 17.9281 17.2227 17.9077 17.2315 17.8852C17.2403 17.8627 17.2446 17.8387 17.244 17.8146C17.2214 16.7337 16.9975 15.6822 16.5769 14.6894V14.6894ZM8.74146 9.49749C7.70352 9.49749 6.72664 9.09271 5.99171 8.35779C5.25679 7.62286 4.85201 6.64598 4.85201 5.60804C4.85201 4.5701 5.25679 3.59322 5.99171 2.85829C6.72664 2.12337 7.70352 1.71859 8.74146 1.71859C9.7794 1.71859 10.7563 2.12337 11.4912 2.85829C12.2261 3.59322 12.6309 4.5701 12.6309 5.60804C12.6309 6.64598 12.2261 7.62286 11.4912 8.35779C10.7563 9.09271 9.7794 9.49749 8.74146 9.49749Z" fill="#333333"/>
</svg>
