<svg width="20" height="24" viewBox="0 0 20 24" fill="none" xmlns="http://www.w3.org/2000/svg">
<path d="M9.65909 0C10.6504 -7.75386e-07 11.6037 0.380989 12.3219 1.06417C13.0401 1.74734 13.4684 2.68044 13.5179 3.67045L13.5228 3.86364H18.3522C18.5985 3.86391 18.8353 3.95817 19.0143 4.12719C19.1933 4.29619 19.301 4.52718 19.3155 4.77294C19.3299 5.0187 19.2499 5.26071 19.0919 5.4495C18.9339 5.63829 18.7097 5.75961 18.4652 5.78869L18.3522 5.79545H17.5322L16.3925 19.8524C16.3189 20.7594 15.9066 21.6055 15.2376 22.2225C14.5686 22.8394 13.6919 23.1819 12.7819 23.1819H6.53631C5.62628 23.1819 4.74955 22.8394 4.08055 22.2225C3.41154 21.6055 2.99928 20.7594 2.92574 19.8524L1.785 5.79545H0.965909C0.729326 5.79543 0.500981 5.70856 0.324186 5.55135C0.147391 5.39415 0.0344416 5.17751 0.00676134 4.94256L0 4.82955C3.1209e-05 4.59296 0.0868892 4.36461 0.2441 4.18783C0.40131 4.01103 0.617939 3.89807 0.852897 3.8704L0.965909 3.86364H5.79545C5.79545 2.83894 6.20251 1.8562 6.92709 1.13163C7.65166 0.40706 8.63439 0 9.65909 0ZM7.4858 8.93466C7.31074 8.93466 7.1416 8.99806 7.00967 9.11313C6.87774 9.22819 6.79194 9.38714 6.76813 9.56056L6.76136 9.65909V17.3864L6.76813 17.4849C6.79199 17.6582 6.87781 17.8171 7.00974 17.9323C7.14166 18.0473 7.31077 18.1106 7.4858 18.1106C7.66082 18.1106 7.82993 18.0473 7.96186 17.9323C8.09379 17.8171 8.17961 17.6582 8.20346 17.4849L8.21023 17.3864V9.65909L8.20346 9.56056C8.17966 9.38714 8.09385 9.22819 7.96193 9.11313C7.82999 8.99806 7.66085 8.93466 7.4858 8.93466ZM11.8324 8.93466C11.6573 8.93466 11.4882 8.99806 11.3563 9.11313C11.2243 9.22819 11.1385 9.38714 11.1147 9.56056L11.108 9.65909V17.3864L11.1147 17.4849C11.1386 17.6582 11.2244 17.8171 11.3563 17.9323C11.4883 18.0473 11.6574 18.1106 11.8324 18.1106C12.0074 18.1106 12.1765 18.0473 12.3084 17.9323C12.4404 17.8171 12.5262 17.6582 12.55 17.4849L12.5569 17.3864V9.65909L12.55 9.56056C12.5262 9.38714 12.4405 9.22819 12.3085 9.11313C12.1766 8.99806 12.0074 8.93466 11.8324 8.93466ZM9.65909 1.93181C9.17171 1.93166 8.7023 2.11574 8.34493 2.44713C7.98756 2.77853 7.76865 3.23275 7.7321 3.71875L7.72727 3.86364H11.5909L11.5861 3.71875C11.5495 3.23275 11.3306 2.77853 10.9733 2.44713C10.6159 2.11574 10.1465 1.93166 9.65909 1.93181Z" fill="#E63946"/>
</svg>
